<?xml version="1.0" encoding="UTF-8"?>
<svg id="Layer_2" data-name="Layer 2" xmlns="http://www.w3.org/2000/svg" viewBox="0 0 168.75 192.56">
  <defs>
    <style>
      .cls-1 {
        fill: #fff;
      }

      .cls-1, .cls-2 {
        stroke: #000;
        stroke-miterlimit: 10;
        stroke-width: .75px;
      }
    </style>
  </defs>
  <g id="Layer_1-2" data-name="Layer 1">
    <g>
      <polygon class="cls-2" points=".38 48.36 .38 144.21 84.38 192.13 168.38 144.21 168.38 48.36 84.38 .43 .38 48.36"/>
      <polygon class="cls-1" points="132.3 70.33 47.82 70.33 47.92 70.5 52.5 77.87 52.6 78.04 52.71 77.87 61.86 77.87 61.97 78.04 62.07 77.87 71.22 77.87 71.33 78.04 71.44 77.87 80.59 77.87 80.69 78.04 80.8 77.87 89.95 77.87 90.06 78.04 90.16 77.87 99.32 77.87 99.42 78.04 99.53 77.87 108.68 77.87 108.79 78.04 108.89 77.87 118.04 77.87 118.15 78.04 118.26 77.87 127.41 77.87 127.51 78.04 122.94 85.42 122.72 85.42 122.83 85.59 118.25 92.96 118.04 92.96 118.15 93.13 113.57 100.51 85.27 100.51 85.38 100.68 89.95 108.05 90.06 108.23 94.63 115.6 94.74 115.77 94.85 115.6 99.42 108.23 99.53 108.05 108.68 108.05 108.79 108.23 104.21 115.6 104 115.6 104.1 115.77 99.53 123.14 89.95 123.14 85.38 115.77 85.48 115.6 85.27 115.6 80.7 108.23 80.8 108.05 80.59 108.05 76.01 100.68 76.12 100.51 75.91 100.51 71.33 93.13 71.44 92.96 80.59 92.96 80.7 93.13 80.8 92.96 89.95 92.96 90.06 93.13 90.16 92.96 99.31 92.96 99.42 93.13 99.53 92.96 108.68 92.96 108.79 93.13 108.89 92.96 113.47 85.59 113.57 85.42 57.18 85.42 57.28 85.59 61.86 92.96 61.97 93.13 66.54 100.51 66.65 100.68 71.22 108.05 71.33 108.23 75.91 115.6 76.01 115.77 80.59 123.14 80.7 123.32 85.27 130.69 85.38 130.86 89.95 138.24 90.06 138.41 85.48 145.78 85.27 145.78 80.7 138.41 80.8 138.24 80.59 138.24 76.01 130.86 76.12 130.69 75.91 130.69 71.33 123.32 71.44 123.14 71.22 123.14 66.65 115.77 66.75 115.6 66.54 115.6 61.97 108.23 62.07 108.05 61.86 108.05 57.28 100.68 57.39 100.51 57.18 100.51 52.6 93.13 52.71 92.96 52.5 92.96 47.92 85.59 48.03 85.42 47.82 85.42 43.24 78.04 43.35 77.87 43.13 77.87 38.56 70.5 38.66 70.33 38.45 70.33 33.88 62.95 33.98 62.78 43.13 62.78 43.24 62.95 43.35 62.78 52.5 62.78 52.6 62.95 52.71 62.78 61.86 62.78 61.97 62.95 62.07 62.78 71.22 62.78 71.33 62.95 71.44 62.78 80.59 62.78 80.69 62.95 80.8 62.78 89.95 62.78 90.06 62.95 90.16 62.78 99.31 62.78 99.42 62.95 99.53 62.78 108.68 62.78 108.79 62.95 108.89 62.78 118.04 62.78 118.15 62.95 118.26 62.78 127.41 62.78 127.51 62.95 127.62 62.78 136.77 62.78 136.88 62.95 132.3 70.33"/>
    </g>
  </g>
</svg>