<?xml version="1.0" encoding="UTF-8"?>
<svg id="Layer_2" data-name="Layer 2" xmlns="http://www.w3.org/2000/svg" viewBox="0 0 188 188">
  <defs>
    <style>
      .cls-1, .cls-2 {
        stroke: #000;
        stroke-miterlimit: 10;
      }

      .cls-2 {
        fill: #fff;
      }
    </style>
  </defs>
  <g id="Layer_1-2" data-name="Layer 1">
    <g>
      <circle class="cls-1" cx="94" cy="94" r="93.5"/>
      <polygon class="cls-2" points="141.92 68.05 57.44 68.05 57.55 68.22 62.12 75.59 62.23 75.76 62.33 75.59 71.49 75.59 71.59 75.76 71.7 75.59 80.85 75.59 80.96 75.76 81.06 75.59 90.21 75.59 90.32 75.76 90.43 75.59 99.58 75.59 99.68 75.76 99.79 75.59 108.94 75.59 109.05 75.76 109.15 75.59 118.3 75.59 118.41 75.76 118.52 75.59 127.67 75.59 127.77 75.76 127.88 75.59 137.03 75.59 137.14 75.76 132.56 83.14 132.35 83.14 132.46 83.31 127.88 90.68 127.67 90.68 127.77 90.85 123.2 98.23 94.9 98.23 95 98.4 99.58 105.77 99.68 105.94 104.26 113.32 104.36 113.49 104.47 113.32 109.05 105.94 109.15 105.77 118.3 105.77 118.41 105.94 113.84 113.32 113.62 113.32 113.73 113.49 109.15 120.86 99.58 120.86 95 113.49 95.11 113.32 94.9 113.32 90.32 105.94 90.43 105.77 90.21 105.77 85.64 98.4 85.74 98.23 85.53 98.23 80.96 90.85 81.06 90.68 90.21 90.68 90.32 90.85 90.43 90.68 99.58 90.68 99.68 90.85 99.79 90.68 108.94 90.68 109.05 90.85 109.15 90.68 118.3 90.68 118.41 90.85 118.52 90.68 123.09 83.31 123.2 83.14 66.8 83.14 66.91 83.31 71.49 90.68 71.59 90.85 76.17 98.23 76.27 98.4 80.85 105.77 80.96 105.94 85.53 113.32 85.64 113.49 90.21 120.86 90.32 121.04 94.9 128.41 95 128.58 99.58 135.95 99.68 136.13 95.11 143.5 94.9 143.5 90.32 136.13 90.43 135.95 90.21 135.95 85.64 128.58 85.74 128.41 85.53 128.41 80.96 121.04 81.06 120.86 80.85 120.86 76.27 113.49 76.38 113.32 76.17 113.32 71.59 105.94 71.7 105.77 71.49 105.77 66.91 98.4 67.02 98.23 66.8 98.23 62.23 90.85 62.33 90.68 62.12 90.68 57.55 83.31 57.65 83.14 57.44 83.14 52.87 75.76 52.97 75.59 52.76 75.59 48.18 68.22 48.29 68.05 48.08 68.05 43.5 60.67 43.61 60.5 52.76 60.5 52.87 60.67 52.97 60.5 62.12 60.5 62.23 60.67 62.33 60.5 71.49 60.5 71.59 60.67 71.7 60.5 80.85 60.5 80.96 60.67 81.06 60.5 90.21 60.5 90.32 60.67 90.43 60.5 99.58 60.5 99.68 60.67 99.79 60.5 108.94 60.5 109.05 60.67 109.15 60.5 118.3 60.5 118.41 60.67 118.52 60.5 127.67 60.5 127.77 60.67 127.88 60.5 137.03 60.5 137.14 60.67 137.24 60.5 146.39 60.5 146.5 60.67 141.92 68.05"/>
    </g>
  </g>
</svg>