<?xml version="1.0" encoding="UTF-8"?>
<svg id="Layer_2" data-name="Layer 2" xmlns="http://www.w3.org/2000/svg" viewBox="0 0 177.75 177.75">
  <defs>
    <style>
      .cls-1 {
        fill: #fff;
      }

      .cls-1, .cls-2 {
        stroke: #000;
        stroke-miterlimit: 10;
        stroke-width: .75px;
      }
    </style>
  </defs>
  <g id="Layer_1-2" data-name="Layer 1">
    <g>
      <circle class="cls-1" cx="88.88" cy="88.88" r="88.5"/>
      <polygon class="cls-2" points="136.8 62.92 52.32 62.92 52.42 63.09 57 70.47 57.1 70.64 57.21 70.47 66.36 70.47 66.47 70.64 66.57 70.47 75.72 70.47 75.83 70.64 75.94 70.47 85.09 70.47 85.19 70.64 85.3 70.47 94.45 70.47 94.56 70.64 94.66 70.47 103.82 70.47 103.92 70.64 104.03 70.47 113.18 70.47 113.29 70.64 113.39 70.47 122.54 70.47 122.65 70.64 122.76 70.47 131.91 70.47 132.01 70.64 127.44 78.01 127.22 78.01 127.33 78.18 122.75 85.56 122.54 85.56 122.65 85.73 118.07 93.1 89.77 93.1 89.88 93.27 94.45 100.65 94.56 100.82 99.13 108.19 99.24 108.37 99.35 108.19 103.92 100.82 104.03 100.65 113.18 100.65 113.29 100.82 108.71 108.19 108.5 108.19 108.6 108.37 104.03 115.74 94.45 115.74 89.88 108.37 89.98 108.19 89.77 108.19 85.2 100.82 85.3 100.65 85.09 100.65 80.51 93.27 80.62 93.1 80.41 93.1 75.83 85.73 75.94 85.56 85.09 85.56 85.2 85.73 85.3 85.56 94.45 85.56 94.56 85.73 94.66 85.56 103.81 85.56 103.92 85.73 104.03 85.56 113.18 85.56 113.29 85.73 113.39 85.56 117.97 78.18 118.07 78.01 61.68 78.01 61.78 78.18 66.36 85.56 66.47 85.73 71.04 93.1 71.15 93.27 75.72 100.65 75.83 100.82 80.41 108.19 80.51 108.37 85.09 115.74 85.2 115.91 89.77 123.28 89.88 123.46 94.45 130.83 94.56 131 89.98 138.38 89.77 138.38 85.2 131 85.3 130.83 85.09 130.83 80.51 123.46 80.62 123.28 80.41 123.28 75.83 115.91 75.94 115.74 75.72 115.74 71.15 108.37 71.25 108.19 71.04 108.19 66.47 100.82 66.57 100.65 66.36 100.65 61.78 93.27 61.89 93.1 61.68 93.1 57.1 85.73 57.21 85.56 57 85.56 52.42 78.18 52.53 78.01 52.32 78.01 47.74 70.64 47.85 70.47 47.63 70.47 43.06 63.09 43.16 62.92 42.95 62.92 38.38 55.55 38.48 55.38 47.63 55.38 47.74 55.55 47.85 55.38 57 55.38 57.1 55.55 57.21 55.38 66.36 55.38 66.47 55.55 66.57 55.38 75.72 55.38 75.83 55.55 75.94 55.38 85.09 55.38 85.19 55.55 85.3 55.38 94.45 55.38 94.56 55.55 94.66 55.38 103.81 55.38 103.92 55.55 104.03 55.38 113.18 55.38 113.29 55.55 113.39 55.38 122.54 55.38 122.65 55.55 122.76 55.38 131.91 55.38 132.01 55.55 132.12 55.38 141.27 55.38 141.38 55.55 136.8 62.92"/>
    </g>
  </g>
</svg>